<?xml version="1.0" encoding="utf-8"?>
<!-- Generator: Adobe Illustrator 23.1.0, SVG Export Plug-In . SVG Version: 6.00 Build 0)  -->
<svg version="1.1" id="Layer_1" xmlns="http://www.w3.org/2000/svg" xmlns:xlink="http://www.w3.org/1999/xlink" x="0px" y="0px"
	 viewBox="0 0 22 18" style="enable-background:new 0 0 22 18;" xml:space="preserve">
<style type="text/css">
	.st0{fill-rule:evenodd;clip-rule:evenodd;fill:#FAFAFD;}
</style>
<path id="Trazado_2276" class="st0" d="M19.53,0.41H2.57c-1.16,0-2.09,0.94-2.1,2.09v12.57c0,1.16,0.94,2.09,2.09,2.09c0,0,0,0,0,0
	h16.97c1.16,0,2.09-0.94,2.1-2.09c0,0,0,0,0,0V2.5C21.63,1.35,20.69,0.41,19.53,0.41 M12.2,16.12H2.57c-0.58,0-1.05-0.47-1.05-1.05
	V2.5c0-0.58,0.47-1.05,1.05-1.05h16.97c0.58,0,1.05,0.47,1.05,1.05v12.57c0,0.58-0.47,1.05-1.05,1.05H12.2z"/>
</svg>
