<?xml version="1.0" encoding="utf-8"?>
<!-- Generator: Adobe Illustrator 23.1.0, SVG Export Plug-In . SVG Version: 6.00 Build 0)  -->
<svg version="1.1" id="Layer_1" xmlns="http://www.w3.org/2000/svg" xmlns:xlink="http://www.w3.org/1999/xlink" x="0px" y="0px"
	 viewBox="0 0 16 16" style="enable-background:new 0 0 16 16;" xml:space="preserve">
<style type="text/css">
	.st0{fill-rule:evenodd;clip-rule:evenodd;fill:#FAFAFD;}
</style>
<path id="Trazado_2271" class="st0" d="M14.77,8.99l0.36-7.67c0.01-0.04,0.02-0.08,0.02-0.12c0-0.14-0.06-0.27-0.16-0.37l0,0l0,0
	c-0.1-0.1-0.23-0.16-0.37-0.16c-0.04,0-0.08,0.01-0.12,0.03L6.85,1.06c-0.28,0-0.51,0.23-0.51,0.51c0,0.28,0.23,0.51,0.51,0.51
	l6.48-0.31L1.14,13.96c-0.2,0.2-0.2,0.54,0,0.74s0.54,0.2,0.74,0L14.06,2.52L13.76,9c0,0.28,0.23,0.51,0.51,0.51
	C14.55,9.51,14.78,9.28,14.77,8.99"/>
</svg>
