<?xml version="1.0" encoding="utf-8"?>
<!-- Generator: Adobe Illustrator 23.1.0, SVG Export Plug-In . SVG Version: 6.00 Build 0)  -->
<svg version="1.1" id="Layer_1" xmlns="http://www.w3.org/2000/svg" xmlns:xlink="http://www.w3.org/1999/xlink" x="0px" y="0px"
	 viewBox="0 0 20 18" style="enable-background:new 0 0 20 18;" xml:space="preserve">
<style type="text/css">
	.st0{fill-rule:evenodd;clip-rule:evenodd;fill:#616D87;}
</style>
<path id="Trazado_2268" class="st0" d="M1.97,2.99h16.14c0.49,0,0.89-0.41,0.89-0.9c0-0.49-0.4-0.89-0.89-0.89H1.97
	c-0.49,0-0.9,0.39-0.9,0.89c0,0.5,0.39,0.9,0.89,0.9C1.96,2.99,1.96,2.99,1.97,2.99 M18.11,8.37H1.97c-0.5-0.02-0.91,0.37-0.93,0.87
	c-0.02,0.5,0.37,0.91,0.87,0.93c0.02,0,0.04,0,0.06,0h16.14c0.5-0.02,0.88-0.43,0.87-0.93C18.96,8.77,18.58,8.39,18.11,8.37
	 M11.42,15.54H1.97c-0.5,0-0.9,0.4-0.9,0.9c0,0.5,0.4,0.9,0.9,0.9h9.45c0.5,0,0.9-0.4,0.9-0.9C12.32,15.95,11.92,15.54,11.42,15.54"
	/>
</svg>
