<?xml version="1.0" encoding="utf-8"?>
<!-- Generator: Adobe Illustrator 23.1.0, SVG Export Plug-In . SVG Version: 6.00 Build 0)  -->
<svg version="1.1" id="Layer_1" xmlns="http://www.w3.org/2000/svg" xmlns:xlink="http://www.w3.org/1999/xlink" x="0px" y="0px"
	 viewBox="0 0 21 20" style="enable-background:new 0 0 21 20;" xml:space="preserve">
<style type="text/css">
	.st0{fill-rule:evenodd;clip-rule:evenodd;fill:#616D87;}
</style>
<path id="Trazado_2273" class="st0" d="M19.84,18.76l-5.39-5.39c2.85-3.3,2.48-8.29-0.82-11.13S5.34-0.25,2.5,3.06
	c-2.85,3.3-2.48,8.29,0.82,11.13c2.97,2.56,7.36,2.55,10.32-0.01l5.39,5.39c0.23,0.22,0.6,0.2,0.82-0.03
	C20.05,19.32,20.05,18.98,19.84,18.76 M8.49,14.89c-3.69,0-6.68-2.99-6.68-6.68S4.8,1.54,8.49,1.54s6.68,2.99,6.68,6.68
	C15.16,11.9,12.17,14.89,8.49,14.89C8.49,14.89,8.49,14.89,8.49,14.89"/>
</svg>
